# xmcd CD database file
#
# Track frame offsets:
#	150
#	10135
#	34538
#	54695
#	72690
#	95195
#	98728
#	108213
#	123538
#	142033
#	164820
#	166263
#	182098
#	189080
#	212823
#	215640
#	229925
#
# Disc length: 3300 seconds
#
# Revision: 0
# Processed by: cddbd v1.5.1PL0 Copyright (c) Steve Scherf et al.
# Submitted via: CDex 1.51
#
DISCID=fd0ce211
DTITLE=小泉今日子 - No17
DYEAR=1990
DGENRE=Pop
TTITLE0=23rd Memories
TTITLE1=いつか きっと
TTITLE2=La La La...
TTITLE3=Heaven
TTITLE4=丘を越えて
TTITLE5=Heavenly Guitar
TTITLE6=あたしのロリポップ
TTITLE7=Eastern Jungle
TTITLE8=ドライブ
TTITLE9=夜
TTITLE10=Lizzie Tears Thang
TTITLE11=No No No
TTITLE12=HOW R U?
TTITLE13=mother MARIA
TTITLE14=Jungle Fever
TTITLE15=涙の行方
TTITLE16=グッド・バイ・マイ・ラブ
EXTD=YEAR: 1990
EXTT0=
EXTT1=
EXTT2=
EXTT3=
EXTT4=
EXTT5=
EXTT6=
EXTT7=
EXTT8=
EXTT9=
EXTT10=
EXTT11=
EXTT12=
EXTT13=
EXTT14=
EXTT15=
EXTT16=
PLAYORDER=
